<?xml version="1.0" encoding="UTF-8"?><svg id="_レイヤー_2" xmlns="http://www.w3.org/2000/svg" viewBox="0 0 726.97 191.52"><defs><style>.cls-1{fill:#00afcc;}.cls-1,.cls-2{stroke-width:0px;}.cls-2{fill:#212121;}</style></defs><g id="_レイヤー_1-2"><path class="cls-2" d="m9.36,147.42L29.52,32.58h27.72l-16.02,91.98h43.38l-4.14,22.86H9.36Z"/><path class="cls-2" d="m129.42,149.58c-25.2,0-42.48-15.48-42.48-37.26,0-2.52,0-5.22.72-7.74,3.96-23.4,25.56-41.04,51.48-41.04,16.92,0,28.62,9.36,28.62,23.76,0,22.32-20.7,30.6-46.08,30.6-3.42,0-7.02-.36-10.26-.72,1.8,7.92,9,12.24,21.6,12.24,7.56,0,13.32-1.44,18.9-3.6l2.88,18.72c-5.94,3.24-16.38,5.04-25.38,5.04Zm-15.84-50.04c2.16.18,4.14.36,5.76.36,14.04,0,23.22-2.7,23.22-10.8,0-3.6-2.7-5.76-7.38-5.76-8.1,0-17.1,5.4-21.6,16.2Z"/><path class="cls-2" d="m194.76,189c-20.88,0-34.74-10.62-34.74-26.1s11.7-24.12,21.78-26.64l-8.46-10.08c1.62-5.4,7.02-9.9,12.78-11.88-5.04-3.24-9-10.08-9-18.72,0-18,14.4-32.4,36.72-32.4,5.4,0,11.34,1.08,18,3.42,6.12.54,12.78-1.08,17.28-2.88l2.52,19.62c-2.52,1.26-6.12,1.98-9.36,2.16.72,1.08,1.08,3.24,1.08,5.76,0,14.76-12.96,27.9-31.68,29.16-3.96.18-7.74,1.44-7.74,4.14,0,1.62.9,2.52,2.34,3.06l14.4,5.04c11.52,3.96,18.36,10.8,18.36,21.96,0,20.16-18.18,34.38-44.28,34.38Zm12.42-38.7l-9.72-2.88c-7.74.36-13.68,6.48-13.68,12.24,0,5.4,4.5,10.08,13.5,10.08,11.16,0,16.92-6.12,16.92-11.52,0-3.96-2.16-6.48-7.02-7.92Zm5.22-68.58c-6.48,0-13.32,5.58-13.32,11.88,0,5.22,3.78,8.82,9.36,8.82,7.2,0,13.32-5.94,13.32-12.24,0-5.04-3.6-8.46-9.36-8.46Z"/><path class="cls-2" d="m247.5,147.42l14.4-81.54h26.82l-14.4,81.54h-26.82Zm29.16-89.1c-4.32,0-11.34-8.46-11.34-13.14s11.88-14.4,16.38-14.4,11.16,8.46,11.16,13.32c0,4.32-11.52,14.22-16.2,14.22Z"/><path class="cls-2" d="m332.99,149.94c-9.72,0-16.92-3.6-19.98-7.02l-8.1,46.08h-25.74l21.78-122.93h23.22l-1.62,9.54.36.18c5.94-8.28,14.76-12.24,25.56-12.24,18.72,0,31.68,13.86,31.68,34.2,0,2.88-.36,6.3-1.08,9.72-4.68,26.28-23.4,42.48-46.08,42.48Zm20.7-48.24c0-10.08-7.02-15.84-14.94-15.84-6.3,0-12.78,3.42-16.92,9.36l-4.32,23.76c2.34,5.58,7.56,8.82,13.68,8.82,9.36,0,19.8-8.64,21.96-21.42.36-1.62.54-3.24.54-4.68Z"/><path class="cls-2" d="m426.77,149.58c-25.2,0-42.48-15.48-42.48-37.26,0-2.52,0-5.22.72-7.74,3.96-23.4,25.56-41.04,51.48-41.04,16.92,0,28.62,9.36,28.62,23.76,0,22.32-20.7,30.6-46.08,30.6-3.42,0-7.02-.36-10.26-.72,1.8,7.92,9,12.24,21.6,12.24,7.56,0,13.32-1.44,18.9-3.6l2.88,18.72c-5.94,3.24-16.38,5.04-25.38,5.04Zm-15.84-50.04c2.16.18,4.14.36,5.76.36,14.04,0,23.22-2.7,23.22-10.8,0-3.6-2.7-5.76-7.38-5.76-8.1,0-17.1,5.4-21.6,16.2Z"/><path class="cls-2" d="m522.71,147.42l1.44-9.72h-.18c-5.94,8.28-14.94,12.06-25.74,12.06-18.72,0-31.5-13.68-31.5-34.02,0-3.06.18-6.3.9-9.72,4.68-26.28,23.4-42.48,46.08-42.48,9.72,0,17.1,3.6,20.16,6.84l9-51.12h25.56l-22.68,128.15h-23.04Zm6.48-52.92c-2.16-5.76-7.56-9-13.68-9-9.36,0-19.8,8.64-21.96,21.6-.36,1.44-.36,3.06-.36,4.5,0,10.26,6.84,15.84,14.94,15.84,6.3,0,12.78-3.42,16.92-9.18l4.14-23.76Z"/><path class="cls-2" d="m558.53,147.42l14.4-81.54h26.82l-14.4,81.54h-26.82Zm29.16-89.1c-4.32,0-11.34-8.46-11.34-13.14s11.88-14.4,16.38-14.4,11.16,8.46,11.16,13.32c0,4.32-11.52,14.22-16.2,14.22Z"/><path class="cls-2" d="m663.29,139.14c-5.94,6.3-14.58,10.44-25.02,10.44-21.6,0-36.9-16.02-36.9-36.72,0-2.52.18-5.04.72-7.74,4.68-26.64,27.18-41.58,49.86-41.58,10.8,0,17.64,3.6,23.04,7.2l3.6-4.86h14.4l-8.82,49.5c-1.62,8.64.9,16.2,6.3,20.88l-.36,1.62-18.72,11.52c-3.6-1.62-6.66-5.22-8.1-10.26Zm-4.5-24.12l4.14-24.3c-3.06-3.42-7.38-5.22-12.78-5.22-9.9,0-20.7,8.1-22.86,20.88-.18,1.62-.36,3.24-.36,4.68,0,10.44,6.66,16.92,15.48,16.92s14.94-5.76,16.38-12.96Z"/><polygon class="cls-1" points="709.24 179.55 326.6 179.55 328.82 165.55 711.45 165.55 709.24 179.55"/><polygon class="cls-1" points="712.8 68.31 695.18 179.55 709.35 179.55 726.97 68.31 712.8 68.31"/></g></svg>