<?xml version="1.0" encoding="UTF-8"?><svg id="_レイヤー_2" xmlns="http://www.w3.org/2000/svg" viewBox="0 0 746.56 192.06"><defs><style>.cls-1{fill:#00afcc;}.cls-1,.cls-2{stroke-width:0px;}.cls-2{fill:#212121;}</style></defs><g id="_レイヤー_1-2"><path class="cls-2" d="m7.92,147.42L28.08,32.58h33.84l-15.48,87.48h39.24l-4.86,27.36H7.92Z"/><path class="cls-2" d="m130.14,149.76c-25.02,0-43.38-15.12-43.38-37.44,0-2.52.18-5.22.72-7.92,4.32-23.76,26.28-40.86,51.3-40.86,18.36,0,30.06,9.36,30.06,25.02,0,21.06-18,29.88-42.84,29.88-3.6,0-7.2-.36-10.26-.72,1.98,5.76,7.92,8.46,18.9,8.46,7.38,0,13.14-1.44,18.9-3.42l3.06,21.6c-5.76,3.06-16.56,5.4-26.46,5.4Zm-12.24-51.12c1.8.18,3.78.36,5.22.36,10.26,0,16.2-2.34,16.2-8.28,0-2.88-2.16-4.68-5.58-4.68-6.12,0-12.42,4.32-15.84,12.6Z"/><path class="cls-2" d="m195.12,189c-21.78,0-35.64-10.62-35.64-26.46,0-14.4,10.98-23.4,21.42-26.1l-9-10.62c1.8-5.04,7.02-9.18,12.42-11.34-4.5-3.06-8.28-9.9-8.28-18.54,0-18,14.22-32.94,37.98-32.94,5.94,0,11.88,1.08,18.9,3.42,6.66.54,12.96-.9,17.1-2.52l2.88,23.04c-2.34,1.26-5.4,1.8-8.82,1.8.54.9.54,2.16.54,4.32,0,13.86-12.42,26.28-29.7,28.26-2.34.18-4.86,1.26-4.86,3.42,0,1.26.9,2.16,2.16,2.52l10.98,3.96c10.98,4.14,18,10.8,18,21.6,0,21.24-19.08,36.18-46.08,36.18Zm10.98-37.26l-7.74-2.16c-5.58.36-10.26,4.68-10.26,9.18,0,4.14,3.42,7.74,10.26,7.74,7.74,0,13.14-4.14,13.14-9.18,0-2.52-1.62-4.5-5.4-5.58Zm6.12-67.5c-4.86,0-10.26,4.32-10.26,9.54,0,3.96,3.06,6.84,7.2,6.84,5.76,0,10.26-4.68,10.26-9.54,0-4.14-2.88-6.84-7.2-6.84Z"/><path class="cls-2" d="m247.5,147.42l14.4-81.54h32.4l-14.4,81.54h-32.4Zm31.86-88.56c-4.86,0-13.14-9.54-13.14-15.3,0-5.4,13.68-16.56,18.9-16.56s13.14,9.9,13.14,15.3-13.68,16.56-18.9,16.56Z"/><path class="cls-2" d="m339.11,150.12c-8.46,0-15.66-3.06-18.18-5.94l-8.1,44.82h-30.78l21.78-123.12h27.54l-1.8,9.9.36.18c5.76-8.82,14.94-12.6,25.56-12.6,18,0,29.88,13.68,29.88,34.02,0,3.24-.36,6.84-.9,10.26-4.86,26.82-22.86,42.48-45.36,42.48Zm14.4-47.34c0-7.92-5.04-12.42-10.98-12.42-4.86,0-9.72,2.88-12.96,7.56l-3.24,18.18c1.62,4.5,5.58,7.38,10.26,7.38,7.2,0,14.76-6.66,16.56-16.74.18-1.44.36-2.7.36-3.96Z"/><path class="cls-2" d="m431.45,149.76c-25.02,0-43.38-15.12-43.38-37.44,0-2.52.18-5.22.72-7.92,4.32-23.76,26.28-40.86,51.3-40.86,18.36,0,30.06,9.36,30.06,25.02,0,21.06-18,29.88-42.84,29.88-3.6,0-7.2-.36-10.26-.72,1.98,5.76,7.92,8.46,18.9,8.46,7.38,0,13.14-1.44,18.9-3.42l3.06,21.6c-5.76,3.06-16.56,5.4-26.46,5.4Zm-12.24-51.12c1.8.18,3.78.36,5.22.36,10.26,0,16.2-2.34,16.2-8.28,0-2.88-2.16-4.68-5.58-4.68-6.12,0-12.42,4.32-15.84,12.6Z"/><path class="cls-2" d="m524.33,147.42l1.8-9.72-.36-.18c-5.94,8.82-15.12,12.42-25.56,12.42-18.18,0-30.06-13.5-30.06-33.84,0-3.24.36-6.84,1.08-10.44,4.86-26.82,22.86-42.48,45.36-42.48,8.28,0,15.66,3.06,18.18,5.94l8.82-49.86h30.96l-22.68,128.15h-27.54Zm4.86-50.04c-1.62-4.68-5.4-7.38-10.26-7.38-7.02,0-14.76,6.48-16.38,16.74-.18,1.26-.36,2.52-.36,3.78,0,8.1,5.04,12.42,10.98,12.42,4.68,0,9.72-2.7,12.96-7.56l3.06-18Z"/><path class="cls-2" d="m561.77,147.42l14.4-81.54h32.4l-14.4,81.54h-32.4Zm31.86-88.56c-4.86,0-13.14-9.54-13.14-15.3,0-5.4,13.68-16.56,18.9-16.56s13.14,9.9,13.14,15.3-13.68,16.56-18.9,16.56Z"/><path class="cls-2" d="m668.33,140.22c-5.76,5.76-13.86,9.54-23.76,9.54-21.24,0-36.72-16.02-36.72-37.08,0-2.52.36-5.04.72-7.74,4.68-27.54,28.26-41.76,50.22-41.76,10.62,0,17.82,3.24,23.58,7.38l3.24-4.68h16.02l-8.46,47.88c-1.62,9.36.9,16.38,6.48,22.32l-.36,1.8-23.22,12.06c-3.24-1.62-6.12-4.86-7.74-9.72Zm-5.76-26.64l3.42-19.8c-2.16-2.88-5.58-4.32-9.72-4.32-7.56,0-15.66,6.66-17.46,16.92-.18,1.26-.18,2.52-.18,3.78,0,8.46,5.22,13.5,11.52,13.5,6.66,0,11.34-4.5,12.42-10.08Z"/><polygon class="cls-1" points="718.53 166.55 715.68 184.55 331.68 184.55 334.53 166.55 718.53 166.55"/><polygon class="cls-1" points="708.41 184.55 727.64 184.55 746.56 65.04 727.34 65.04 708.41 184.55"/></g></svg>