<?xml version="1.0" encoding="UTF-8"?><svg id="_レイヤー_2" xmlns="http://www.w3.org/2000/svg" viewBox="0 0 610.56 188.1"><defs><style>.cls-1{fill:#00afcc;}.cls-1,.cls-2{stroke-width:0px;}.cls-2{fill:#212121;}</style></defs><g id="_レイヤー_1-2"><path class="cls-2" d="m6.66,147.42L26.82,32.58h28.26l-16.02,91.62h30.96l-3.96,23.22H6.66Z"/><path class="cls-2" d="m106.02,149.22c-21.24,0-34.92-14.22-34.92-35.82,0-3.24.36-6.66.9-10.08,3.78-21.42,20.7-39.24,42.48-39.24,16.2,0,25.38,9.36,25.38,21.96,0,21.24-18.36,33.12-40.68,33.12-1.44,0-2.7,0-3.96-.18,1.26,6.12,5.76,9.54,14.4,9.54,5.76,0,10.44-1.26,14.76-3.06l2.7,19.08c-4.68,2.7-13.14,4.68-21.06,4.68Zm-9.36-47.52h1.62c10.08,0,16.92-6.66,16.92-13.32,0-2.52-1.62-4.32-4.5-4.32-6.12,0-11.34,7.2-14.04,17.64Z"/><path class="cls-2" d="m158.22,184.68c-18,0-29.34-9.72-29.34-24.3s9.72-23.58,18.54-26.28l-7.38-9.72c1.62-4.5,5.94-8.46,10.98-10.44-3.78-3.06-7.38-8.82-7.38-17.64,0-15.48,10.62-32.58,32.76-32.58,5.58,0,10.44,1.44,15.84,3.42,5.94.54,10.98-.9,14.76-2.34l2.52,20.16c-1.98,1.08-4.86,1.62-8.1,1.8.54.72.72,2.16.72,4.14,0,13.5-9.9,26.28-25.2,28.62-2.7.18-5.04,1.62-5.04,3.78,0,1.62,1.26,2.7,2.7,3.24l6.84,2.52c9.9,3.42,15.66,10.44,15.66,20.34,0,19.98-15.66,35.28-38.88,35.28Zm9.36-37.62l-5.58-1.62c-4.14,1.08-8.46,7.2-8.46,13.14,0,4.14,2.52,7.02,7.56,7.02,5.76,0,10.8-6.84,10.8-12.96,0-2.7-1.26-4.68-4.32-5.58Zm7.56-65.16c-5.04,0-9.18,9.36-9.18,13.86,0,3.78,2.16,6.3,5.58,6.3,5.4,0,9-9.54,9-14.04,0-3.78-2.16-6.12-5.4-6.12Z"/><path class="cls-2" d="m201.78,147.42l14.4-81.54h27.18l-14.4,81.54h-27.18Zm29.16-87.48c-4.14,0-11.16-8.1-11.16-12.96,0-4.32,11.7-13.86,15.84-13.86s11.16,8.46,11.16,12.96-11.52,13.86-15.84,13.86Z"/><path class="cls-2" d="m277.02,149.4c-6.3,0-12.24-2.52-14.4-5.22l-7.2,40.5h-25.92l20.88-118.79h23.04l-1.44,8.46.36.18c4.14-6.84,11.34-10.62,20.16-10.62,14.4,0,23.4,12.6,23.4,31.5,0,3.96-.36,8.28-1.26,12.6-4.86,26.82-18.9,41.4-37.62,41.4Zm11.88-49.32c0-7.92-3.06-12.96-7.92-12.96-3.24,0-6.84,2.16-9,5.4l-5.04,28.8c1.26,3.06,3.78,4.86,6.84,4.86,6.48,0,12.6-7.92,14.58-19.44.36-2.52.54-4.5.54-6.66Z"/><path class="cls-2" d="m351.72,149.22c-21.24,0-34.92-14.22-34.92-35.82,0-3.24.36-6.66.9-10.08,3.78-21.42,20.7-39.24,42.48-39.24,16.2,0,25.38,9.36,25.38,21.96,0,21.24-18.36,33.12-40.68,33.12-1.44,0-2.7,0-3.96-.18,1.26,6.12,5.76,9.54,14.4,9.54,5.76,0,10.44-1.26,14.76-3.06l2.7,19.08c-4.68,2.7-13.14,4.68-21.06,4.68Zm-9.36-47.52h1.62c10.08,0,16.92-6.66,16.92-13.32,0-2.52-1.62-4.32-4.5-4.32-6.12,0-11.34,7.2-14.04,17.64Z"/><path class="cls-2" d="m425.87,147.42l1.44-8.46-.36-.18c-4.14,6.84-11.52,10.62-20.16,10.62-14.58,0-23.4-12.42-23.4-31.32,0-4.14.36-8.28,1.26-12.78,4.68-26.82,18.9-41.4,37.62-41.4,6.3,0,12.06,2.52,14.4,5.22l7.92-45h26.1l-21.78,123.29h-23.04Zm6.3-55.44c-1.08-3.06-3.6-4.86-6.84-4.86-6.3,0-12.6,7.92-14.4,19.44-.36,2.52-.54,4.5-.54,6.66,0,7.92,3.06,12.96,7.92,12.96,3.24,0,6.84-2.16,8.82-5.4l5.04-28.8Z"/><path class="cls-2" d="m456.12,147.42l14.4-81.54h27.18l-14.4,81.54h-27.18Zm29.16-87.48c-4.14,0-11.16-8.1-11.16-12.96,0-4.32,11.7-13.86,15.84-13.86s11.16,8.46,11.16,12.96-11.52,13.86-15.84,13.86Z"/><path class="cls-2" d="m542.33,141.12c-4.5,4.86-11.16,8.1-19.08,8.1-17.28,0-28.62-14.58-28.62-34.2,0-3.06.36-6.48.9-9.72,4.68-27.18,22.68-41.58,41.94-41.58,8.28,0,14.76,2.88,19.44,6.48l3.24-4.32h12.96l-9.36,52.92c-1.62,7.92.18,14.22,5.04,19.44l-.36,1.44-19.8,9.72c-2.7-1.26-4.86-4.32-6.3-8.28Zm-4.68-22.32l5.22-29.16c-1.26-1.98-3.6-3.6-6.84-3.6-5.94,0-12.6,8.28-14.76,20.16-.36,2.34-.54,4.5-.54,6.66,0,8.28,3.6,13.68,8.64,13.68,4.32,0,7.56-3.24,8.28-7.74Z"/><polygon class="cls-1" points="583.53 163.55 580.68 181.55 272.68 181.55 275.53 163.55 583.53 163.55"/><polygon class="cls-1" points="573.41 181.55 591.64 181.55 610.56 62.04 592.34 62.04 573.41 181.55"/></g></svg>